<?xml version="1.0" standalone="no"?>
<!DOCTYPE svg PUBLIC "-//W3C//DTD SVG 20010904//EN"
 "http://www.w3.org/TR/2001/REC-SVG-20010904/DTD/svg10.dtd">
<svg version="1.0" xmlns="http://www.w3.org/2000/svg"
 width="512.000000pt" height="512.000000pt" viewBox="0 0 512.000000 512.000000"
 preserveAspectRatio="xMidYMid meet">
<metadata>
Created by potrace 1.14, written by Peter Selinger 2001-2017
</metadata>
<g transform="translate(0.000000,512.000000) scale(0.100000,-0.100000)"
fill="#000000" stroke="none">
<path d="M1028 5115 c-2 -2 -43 -5 -93 -9 -268 -18 -491 -116 -648 -285 -134
-145 -210 -315 -241 -540 -17 -121 -18 -310 -2 -312 12 -2 98 2 136 5 24 3 25
6 26 67 5 233 24 343 81 468 100 219 277 354 533 407 120 25 404 23 492 -2 18
-5 18 -7 38 94 15 79 16 78 -42 86 -74 9 -276 24 -280 21z"/>
<path d="M1940 5084 c-58 -13 -118 -26 -135 -29 -16 -3 -48 -10 -70 -15 -22
-5 -56 -12 -75 -15 -19 -3 -50 -16 -67 -28 -31 -21 -38 -37 -34 -82 2 -18 82
-408 85 -412 0 -1 38 6 84 14 63 12 82 19 82 32 0 9 -11 68 -24 131 -14 63
-24 115 -23 116 1 1 61 -22 132 -51 304 -121 644 -315 965 -549 61 -44 282
-216 290 -225 3 -3 37 -33 75 -66 74 -63 141 -124 264 -242 l76 -72 62 62 63
61 -69 66 c-129 123 -176 166 -293 267 -142 121 -326 265 -456 355 -53 36
-105 72 -115 80 -17 12 -9 18 77 63 53 28 96 56 96 62 0 20 -63 143 -73 143
-5 0 -61 -27 -123 -61 l-114 -60 26 -40 c14 -23 24 -42 22 -44 -2 -2 -24 9
-49 25 -166 103 -461 258 -592 311 -62 25 -63 34 -3 43 97 15 94 9 70 115 -12
53 -20 71 -33 70 -9 0 -63 -11 -121 -25z"/>
<path d="M3830 5069 c-55 -8 -110 -17 -245 -43 -131 -26 -532 -167 -542 -192
-3 -8 45 -125 63 -152 1 -2 41 14 90 34 154 64 405 139 529 159 184 30 376 38
485 21 233 -38 448 -161 530 -305 8 -14 17 -28 20 -31 27 -26 92 -205 105
-290 4 -25 9 -54 11 -65 12 -58 4 -302 -11 -387 -3 -11 5 -18 23 -22 32 -6
123 -17 137 -17 16 0 32 173 30 316 -5 302 -93 532 -274 715 -123 125 -279
204 -481 247 -86 18 -370 25 -470 12z"/>
<path d="M2158 4327 c-70 -51 -128 -95 -128 -100 0 -4 23 -36 51 -72 l50 -64
127 91 c70 51 128 93 130 94 5 3 -90 144 -97 144 -3 -1 -63 -42 -133 -93z"/>
<path d="M1690 3953 c-41 -38 -96 -88 -123 -113 l-48 -45 60 -59 c43 -43 63
-56 74 -50 8 5 56 47 106 93 50 46 98 89 107 95 16 12 8 24 -76 118 l-25 28
-75 -67z"/>
<path d="M4694 3627 c-115 -32 -210 -60 -211 -61 -5 -4 36 -149 45 -158 5 -5
35 0 73 11 104 32 179 50 179 42 0 -8 -48 -141 -90 -250 -84 -216 -294 -595
-470 -848 -124 -178 -344 -453 -466 -583 -120 -128 -153 -166 -154 -174 0 -10
108 -116 119 -116 5 0 19 13 32 29 13 15 67 74 119 131 115 124 101 108 180
205 35 44 71 86 78 94 66 69 315 426 432 621 94 155 241 447 295 587 27 68 50
121 52 119 2 -2 12 -34 23 -71 11 -37 21 -70 24 -72 3 -3 152 35 163 42 2 1
-27 105 -63 231 -67 233 -83 268 -128 276 -13 3 -117 -22 -232 -55z"/>
<path d="M168 3661 c-37 -9 -69 -19 -73 -22 -11 -12 61 -258 78 -265 11 -4
142 38 153 49 3 2 -6 40 -19 83 -14 44 -30 100 -37 127 -7 26 -18 46 -24 46
-6 -1 -41 -9 -78 -18z"/>
<path d="M1346 3627 c-26 -28 -76 -81 -110 -117 -398 -422 -774 -971 -978
-1433 -56 -126 -59 -127 -73 -33 -4 26 -14 50 -21 53 -8 3 -48 -2 -89 -12 -69
-15 -75 -18 -70 -38 3 -12 25 -116 50 -231 24 -115 51 -219 60 -232 24 -37 59
-40 180 -15 61 13 121 25 135 27 14 3 50 12 81 20 31 7 67 14 79 14 21 0 22 3
15 43 -4 23 -8 47 -9 52 -2 6 -6 26 -10 46 l-8 36 -111 -23 c-62 -13 -117 -26
-124 -28 -25 -10 -21 13 18 114 119 306 345 701 589 1025 78 104 285 358 335
411 37 40 129 138 179 192 l60 63 -62 59 c-34 33 -63 60 -64 60 -2 0 -25 -24
-52 -53z"/>
<path d="M3742 3532 l-62 -58 108 -120 109 -121 24 21 c14 12 43 37 66 56 l42
36 -28 32 c-16 17 -61 68 -102 113 -41 45 -75 85 -77 90 -6 16 -17 10 -80 -49z"/>
<path d="M2537 3574 c-1 -1 -51 -4 -112 -7 -299 -17 -540 -116 -597 -245 -19
-41 -20 -76 -20 -771 1 -808 -3 -768 67 -836 69 -66 157 -107 320 -145 110
-26 206 -35 370 -35 335 2 581 68 696 189 66 70 64 45 63 841 -1 708 -1 721
-21 760 -24 46 -61 82 -118 117 -73 44 -213 91 -310 104 -22 3 -45 7 -52 9
-20 7 -280 24 -286 19z m233 -187 c14 -2 45 -8 70 -11 125 -19 300 -94 300
-129 0 -39 -153 -110 -280 -131 -136 -23 -391 -29 -524 -13 -160 19 -356 98
-356 143 0 42 178 112 350 137 88 13 374 16 440 4z m-657 -414 c125 -37 287
-57 467 -56 183 1 369 30 497 78 36 14 67 25 69 25 2 0 4 -53 4 -118 0 -116
-1 -119 -27 -144 -50 -47 -194 -95 -345 -115 -112 -15 -456 -7 -510 12 -7 2
-25 6 -40 9 -68 11 -180 58 -218 90 -25 20 -26 26 -28 135 0 63 1 118 4 122 3
5 22 2 42 -7 20 -9 59 -22 85 -31z m-47 -442 c90 -33 160 -48 288 -65 146 -18
396 -11 516 14 25 5 56 12 70 14 22 3 144 42 193 61 16 7 17 -3 17 -116 l0
-124 -36 -25 c-55 -37 -111 -59 -199 -80 -128 -30 -141 -31 -320 -35 -157 -4
-238 3 -379 30 -62 12 -183 66 -208 93 -25 26 -26 32 -26 145 0 64 1 117 2
117 1 0 38 -13 82 -29z m24 -468 c87 -29 86 -29 215 -49 107 -17 338 -22 445
-11 130 15 264 47 384 93 14 5 16 -9 16 -115 l0 -122 -32 -30 c-18 -16 -36
-29 -41 -29 -4 0 -28 -9 -52 -20 -45 -20 -135 -44 -215 -55 -25 -4 -56 -9 -70
-11 -70 -10 -325 -4 -417 10 -160 24 -309 80 -332 124 -5 10 -9 70 -9 135 0
107 1 118 16 112 9 -4 51 -18 92 -32z"/>
<path d="M362 3085 l-73 -35 72 -142 c40 -79 74 -145 76 -148 3 -4 134 62 151
76 7 5 -133 283 -143 283 -6 1 -43 -15 -83 -34z"/>
<path d="M4195 3057 c-23 -18 -53 -42 -68 -54 l-28 -22 94 -130 94 -130 39 26
c22 14 54 37 71 50 l33 24 -33 47 c-37 54 -146 204 -156 214 -3 3 -24 -8 -46
-25z"/>
<path d="M4562 2438 l-72 -40 56 -107 c31 -58 59 -108 61 -110 4 -6 143 61
149 71 5 8 -107 228 -116 227 -3 0 -38 -18 -78 -41z"/>
<path d="M779 2361 l-66 -47 92 -128 c51 -70 96 -130 99 -133 7 -7 135 88 136
100 0 12 -181 257 -189 256 -3 0 -36 -22 -72 -48z"/>
<path d="M4775 2048 c-39 -17 -74 -34 -78 -38 -5 -4 3 -35 18 -70 64 -152 134
-379 164 -530 82 -413 17 -753 -182 -954 -110 -111 -218 -166 -407 -206 -67
-14 -119 -17 -245 -15 -88 2 -177 6 -197 9 -42 6 -43 3 -53 -79 -4 -27 -9 -58
-11 -67 -3 -10 -1 -19 5 -19 6 -1 14 -2 19 -3 65 -16 364 -24 422 -11 14 3 46
7 72 10 26 3 82 16 125 29 349 105 563 344 640 716 20 97 24 357 8 476 -32
227 -91 443 -183 669 -24 61 -45 111 -46 112 -1 1 -33 -12 -71 -29z"/>
<path d="M1182 1845 l-62 -54 32 -38 c18 -20 40 -44 48 -53 8 -9 43 -46 76
-83 34 -37 64 -67 67 -67 3 0 32 26 65 58 l60 57 -104 115 c-58 63 -108 116
-112 117 -4 1 -35 -22 -70 -52z"/>
<path d="M1552 1457 l-61 -62 27 -25 c16 -14 75 -68 132 -121 465 -428 999
-778 1515 -990 70 -29 123 -55 117 -57 -6 -2 -39 -11 -74 -20 -72 -20 -73 -23
-43 -125 12 -40 21 -57 33 -57 9 1 116 29 236 65 232 67 255 79 256 135 0 14
-25 116 -57 228 l-57 204 -29 -6 c-68 -14 -137 -38 -137 -49 0 -7 16 -64 35
-127 18 -63 33 -116 32 -117 -3 -3 -181 60 -262 92 -135 54 -414 194 -517 261
-21 13 -40 24 -43 24 -30 0 -606 410 -645 459 -3 4 -30 26 -60 50 -49 38 -178
152 -266 236 -76 72 -63 72 -132 2z"/>
<path d="M3389 1407 c-31 -29 -84 -77 -118 -108 l-62 -56 57 -66 57 -66 66 59
c36 32 92 83 124 112 l57 53 -62 62 -63 62 -56 -52z"/>
<path d="M23 1339 c-1 -8 -5 -43 -9 -79 -11 -83 -11 -313 -1 -408 4 -40 19
-111 32 -157 134 -461 523 -701 1082 -666 21 1 22 4 17 73 -3 40 -7 78 -9 85
-3 8 -36 12 -107 12 -57 1 -112 3 -123 5 -11 2 -47 7 -79 11 -32 3 -96 19
-141 34 -293 98 -466 323 -501 651 -11 102 -4 333 12 397 7 25 1 29 -56 38
-112 17 -117 17 -117 4z"/>
<path d="M2823 939 l-122 -90 46 -70 c31 -47 51 -68 61 -64 25 9 252 179 252
188 0 15 -92 127 -104 126 -6 0 -66 -41 -133 -90z"/>
<path d="M2130 512 c-74 -37 -137 -68 -138 -69 -9 -4 65 -153 76 -153 7 0 76
32 152 70 l139 71 -39 72 c-22 39 -43 73 -47 74 -4 1 -69 -28 -143 -65z"/>
<path d="M1595 295 c-44 -13 -100 -29 -123 -35 -33 -9 -42 -15 -38 -27 4 -8
13 -46 22 -84 9 -38 18 -69 20 -69 11 0 191 52 231 66 l42 15 -27 76 c-15 42
-31 78 -37 79 -5 1 -46 -8 -90 -21z"/>
</g>
</svg>
