<?xml version="1.0" standalone="no"?>
<!DOCTYPE svg PUBLIC "-//W3C//DTD SVG 20010904//EN"
 "http://www.w3.org/TR/2001/REC-SVG-20010904/DTD/svg10.dtd">
<svg version="1.0" xmlns="http://www.w3.org/2000/svg"
 width="300.000000pt" height="300.000000pt" viewBox="0 0 300.000000 300.000000"
 preserveAspectRatio="xMidYMid meet">

<g transform="translate(0.000000,300.000000) scale(0.100000,-0.100000)"
fill="#000000" stroke="none">
<path d="M897 2533 l-597 -345 2 -690 3 -689 597 -346 598 -345 597 345 598
345 0 692 0 692 -590 340 c-324 187 -594 342 -600 344 -5 2 -279 -153 -608
-343z m954 -50 l50 -28 -3 -59 -3 -60 -48 -28 -49 -29 -46 29 c-47 28 -47 29
-50 88 l-3 59 48 27 c26 15 50 28 52 28 1 0 25 -12 52 -27z m-626 -7 c15 -11
21 -31 25 -85 5 -74 -3 -99 -27 -79 -10 8 -17 8 -25 0 -17 -17 -64 -15 -82 4
-39 38 -6 94 56 94 26 0 38 4 38 14 0 25 -27 38 -64 30 -23 -4 -36 -2 -36 4 0
30 82 42 115 18z m72 2 c6 -7 16 -38 24 -68 l13 -55 14 60 c24 96 52 97 73 2
l13 -62 17 59 c20 66 34 85 49 70 7 -7 0 -38 -18 -94 -23 -67 -33 -85 -48 -85
-14 0 -22 12 -31 48 -6 27 -14 54 -16 60 -2 7 -10 -15 -18 -48 -12 -48 -19
-60 -34 -60 -16 0 -25 17 -47 84 -15 46 -25 88 -22 93 7 12 20 10 31 -4z m327
6 c32 -12 18 -33 -21 -31 -28 1 -38 -2 -41 -15 -2 -12 5 -19 25 -24 59 -14 80
-58 46 -96 -26 -29 -113 -22 -113 8 0 11 9 13 38 8 28 -4 41 -2 51 9 11 14 6
19 -36 39 -37 18 -49 29 -51 50 -5 42 52 71 102 52z m-20 -233 c3 -5 -3 -11
-14 -14 -11 -3 -20 -12 -20 -21 0 -12 10 -16 40 -16 l40 0 0 -60 c0 -33 -4
-60 -10 -60 -5 0 -10 23 -10 50 0 49 -1 50 -30 50 -29 0 -30 -1 -30 -50 0 -27
-4 -50 -10 -50 -5 0 -10 22 -10 49 0 30 -5 51 -12 54 -9 4 -10 8 -3 14 6 4 16
20 22 36 12 26 36 36 47 18z m296 -85 l0 -83 -30 -6 c-41 -9 -56 -1 -71 35
-18 44 5 83 49 83 28 0 32 3 32 27 0 16 5 28 10 28 6 0 10 -35 10 -84z m-385
64 c-3 -5 -10 -10 -16 -10 -5 0 -9 5 -9 10 0 6 7 10 16 10 8 0 12 -4 9 -10z
m135 0 c0 -5 -4 -10 -10 -10 -5 0 -10 5 -10 10 0 6 5 10 10 10 6 0 10 -4 10
-10z m-210 -15 c0 -8 7 -15 15 -15 8 0 15 -4 15 -10 0 -5 -7 -10 -15 -10 -11
0 -15 -12 -15 -45 0 -36 4 -45 17 -45 12 0 14 -3 7 -10 -23 -23 -44 1 -44 50
0 29 -5 51 -12 54 -10 5 -10 7 0 12 6 3 12 12 12 20 0 8 5 14 10 14 6 0 10 -7
10 -15z m-255 -24 c3 -5 -9 -11 -27 -13 -28 -2 -34 -7 -36 -31 -4 -34 15 -60
40 -54 25 7 33 -10 8 -18 -34 -11 -70 20 -70 60 0 18 7 41 16 49 17 18 59 21
69 7z m103 -3 c7 -7 12 -22 12 -35 0 -20 -5 -23 -40 -23 -28 0 -40 -4 -40 -14
0 -18 33 -30 60 -21 24 7 27 -10 4 -19 -26 -10 -47 -7 -66 11 -22 20 -24 76
-2 97 18 19 55 21 72 4z m102 2 c0 -5 -10 -10 -22 -12 -20 -3 -23 -10 -26 -50
-4 -68 -22 -60 -22 10 l0 58 35 1 c19 1 35 -3 35 -7z m120 -50 c0 -33 -4 -60
-10 -60 -11 0 -14 103 -3 113 12 12 13 8 13 -53z m260 39 c18 -33 5 -49 -40
-49 -38 0 -40 -1 -29 -21 8 -16 18 -20 40 -17 18 3 28 1 26 -6 -5 -15 -42 -19
-66 -7 -28 15 -37 66 -17 96 21 32 70 34 86 4z m460 -239 c0 -7 -250 -10 -730
-10 -480 0 -730 3 -730 10 0 7 250 10 730 10 480 0 730 -3 730 -10z m-890
-240 c0 -57 4 -90 11 -90 6 0 9 -10 7 -22 -2 -15 -11 -24 -26 -26 -44 -7 -52
12 -52 124 l0 104 30 0 30 0 0 -90z m548 -22 c2 -98 1 -108 -15 -109 -10 0
-37 -2 -61 -5 -57 -5 -82 19 -82 80 0 36 5 48 27 66 18 14 35 19 50 15 21 -5
23 -2 23 30 0 34 2 36 28 33 l27 -3 3 -107z m-641 90 c18 -25 9 -43 -20 -40
-46 5 -67 -14 -67 -58 0 -46 24 -65 71 -55 26 6 29 4 29 -18 0 -37 -60 -50
-114 -26 -74 34 -68 168 9 200 31 12 81 10 92 -3z m266 -69 c25 -31 22 -85 -8
-114 -67 -68 -171 20 -124 106 23 43 99 47 132 8z m99 -34 c2 -30 8 -55 13
-55 6 0 11 25 13 55 3 54 4 55 32 55 l30 0 0 -74 c0 -65 -2 -74 -20 -79 -11
-3 -23 -1 -26 4 -3 5 -13 5 -24 -1 -53 -28 -80 1 -80 86 l0 64 30 0 c28 0 29
-1 32 -55z m-157 -195 c0 -18 -6 -26 -23 -28 -24 -4 -38 18 -28 44 3 9 15 14
28 12 17 -2 23 -10 23 -28z m210 0 c0 -18 -6 -26 -23 -28 -24 -4 -38 18 -28
44 3 9 15 14 28 12 17 -2 23 -10 23 -28z m-857 -7 c52 -44 24 -123 -44 -123
-32 0 -34 -2 -34 -35 0 -32 -2 -35 -30 -35 l-30 0 0 105 0 105 59 0 c41 0 65
-5 79 -17z m536 -16 c-1 -10 5 -17 17 -17 14 0 19 -7 19 -25 0 -17 -5 -25 -14
-23 -16 3 -16 3 -16 -43 0 -24 4 -30 15 -25 11 4 15 -1 15 -19 0 -22 -5 -25
-33 -25 -44 0 -57 15 -57 67 0 24 -3 43 -7 44 -5 0 -20 2 -35 4 -29 4 -58 -16
-58 -39 0 -21 28 -39 51 -33 16 4 20 1 17 -16 -2 -18 -11 -23 -44 -25 -36 -3
-45 1 -64 25 -17 21 -20 36 -16 63 8 52 40 73 99 67 44 -6 49 -4 57 19 7 19
16 25 33 22 14 -2 21 -9 21 -21z m206 3 c0 -13 7 -20 20 -20 15 0 20 -7 20
-25 0 -19 -5 -25 -17 -23 -14 2 -18 -4 -18 -32 0 -27 4 -35 18 -34 12 1 17 -5
17 -22 0 -21 -5 -24 -35 -24 -42 0 -70 34 -63 80 3 18 0 31 -9 34 -15 6 -18
36 -3 36 6 0 15 11 20 25 12 31 50 35 50 5z m-647 -32 c3 -10 7 -10 20 1 9 7
24 11 33 7 19 -7 15 -51 -6 -52 -8 -1 -21 -2 -27 -2 -9 -1 -13 -19 -13 -52 0
-49 -1 -50 -30 -50 l-30 0 0 80 c0 78 1 80 24 80 13 0 26 -6 29 -12z m188 2
c16 -9 19 -22 19 -80 l0 -69 -57 0 c-64 0 -83 10 -83 45 0 27 34 54 68 54 14
0 21 4 16 11 -4 7 -21 9 -40 6 -28 -5 -34 -3 -34 13 0 10 6 21 13 23 22 9 78
7 98 -3z m369 -70 l0 -80 -30 0 -30 0 0 80 0 80 30 0 30 0 0 -80z m210 0 l0
-80 -30 0 -30 0 0 80 0 80 30 0 30 0 0 -80z m160 60 c13 -13 20 -33 20 -60 0
-53 -27 -80 -79 -80 -73 0 -108 84 -56 135 31 32 86 34 115 5z m188 8 c7 -7
12 -36 12 -79 l0 -69 -30 0 c-28 0 -29 1 -32 57 -4 81 -28 85 -28 4 l0 -61
-30 0 -30 0 0 78 0 79 63 0 c34 1 68 -4 75 -9z m163 -9 c13 -13 19 -30 17 -47
-3 -24 -8 -28 -48 -33 -33 -4 -40 -7 -27 -13 9 -5 29 -6 43 -3 21 4 25 1 22
-17 -2 -17 -11 -22 -49 -24 -41 -3 -50 1 -68 24 -27 34 -27 74 0 108 26 33 79
36 110 5z m92 9 c4 -10 7 -10 18 0 22 21 39 14 39 -16 0 -23 -4 -28 -22 -28
-21 1 -23 -4 -26 -51 -3 -51 -4 -53 -33 -53 l-29 0 0 80 c0 78 1 80 24 80 13
0 26 -6 29 -12z m-405 -295 c-203 -2 -533 -2 -735 0 -203 1 -37 2 367 2 404 0
570 -1 368 -2z m-1198 -168 c0 -8 -9 -15 -20 -15 -11 0 -20 -4 -20 -10 0 -5 6
-10 14 -10 24 0 30 -21 7 -27 -12 -3 -21 -13 -21 -24 0 -12 -7 -19 -20 -19
-18 0 -20 7 -20 60 l0 60 40 0 c29 0 40 -4 40 -15z m158 3 c17 -17 15 -74 -4
-92 -53 -54 -138 30 -87 86 18 20 73 24 91 6z m112 -33 c0 -33 4 -45 15 -45
11 0 15 12 15 45 0 38 3 45 20 45 17 0 20 -7 20 -41 0 -58 -14 -79 -53 -79
-45 0 -57 16 -57 72 0 41 3 48 20 48 17 0 20 -7 20 -45z m182 18 l17 -28 1 28
c0 20 5 27 20 27 19 0 21 -5 18 -57 -4 -71 -26 -83 -58 -31 l-20 33 0 -32 c0
-23 -5 -33 -15 -33 -12 0 -15 13 -15 60 0 51 3 60 18 60 9 0 25 -12 34 -27z
m199 17 c24 -13 26 -72 3 -94 -8 -9 -31 -16 -50 -16 l-34 0 0 60 0 60 31 0
c17 0 39 -5 50 -10z m164 -30 c28 -81 28 -80 6 -80 -12 0 -21 5 -21 10 0 6 -9
10 -20 10 -11 0 -20 -4 -20 -10 0 -5 -9 -10 -20 -10 -24 0 -25 -3 1 65 17 46
25 56 41 53 14 -2 25 -15 33 -38z m165 25 c0 -8 -7 -15 -15 -15 -11 0 -15 -12
-15 -45 0 -38 -3 -45 -20 -45 -17 0 -20 7 -20 45 0 33 -4 45 -15 45 -8 0 -15
7 -15 15 0 11 12 15 50 15 38 0 50 -4 50 -15z m90 -45 c0 -47 -3 -60 -15 -60
-12 0 -15 13 -15 60 0 47 3 60 15 60 12 0 15 -13 15 -60z m168 48 c17 -17 15
-74 -4 -92 -35 -35 -104 -6 -104 44 0 9 7 26 16 38 17 25 71 31 92 10z m129
-20 l18 -33 3 33 c2 20 9 32 18 32 11 0 14 -15 14 -60 0 -53 -2 -60 -20 -60
-12 0 -26 13 -37 33 l-18 32 -3 -32 c-2 -21 -9 -33 -18 -33 -11 0 -14 15 -14
60 0 53 2 60 20 60 12 0 26 -13 37 -32z m202 -24 c26 -68 25 -64 1 -64 -11 0
-20 5 -20 10 0 6 -9 10 -20 10 -11 0 -20 -4 -20 -10 0 -5 -9 -10 -20 -10 -11
0 -20 2 -20 4 0 3 20 62 35 104 2 6 13 12 23 12 14 0 25 -15 41 -56z m111 12
c0 -39 3 -45 23 -48 38 -5 24 -23 -20 -26 l-43 -3 0 60 c0 54 2 61 20 61 17 0
20 -7 20 -44z"/>
<path d="M1144 2365 c-8 -19 3 -35 25 -35 20 0 41 19 41 37 0 18 -59 17 -66
-2z"/>
<path d="M1814 2156 c-8 -34 12 -68 39 -64 18 2 23 11 25 46 3 41 2 42 -27 42
-24 0 -32 -5 -37 -24z"/>
<path d="M1227 2173 c-15 -14 -6 -23 23 -23 20 0 30 5 30 15 0 15 -40 21 -53
8z"/>
<path d="M1697 2166 c-5 -13 1 -16 29 -16 24 0 34 4 32 13 -7 19 -54 21 -61 3z"/>
<path d="M1790 1645 c0 -28 4 -35 20 -35 16 0 20 7 20 35 0 28 -4 35 -20 35
-16 0 -20 -7 -20 -35z"/>
<path d="M1437 1674 c-12 -13 -7 -51 8 -64 12 -10 16 -9 21 3 13 35 -9 81 -29
61z"/>
<path d="M730 1404 c0 -33 33 -30 38 4 3 17 -2 22 -17 22 -16 0 -21 -6 -21
-26z"/>
<path d="M1030 1320 c0 -5 4 -10 9 -10 6 0 13 5 16 10 3 6 -1 10 -9 10 -9 0
-16 -4 -16 -10z"/>
<path d="M1755 1371 c-8 -27 3 -63 18 -58 7 2 12 19 12 37 0 38 -20 52 -30 21z"/>
<path d="M2110 1380 c0 -5 9 -10 21 -10 11 0 17 5 14 10 -3 6 -13 10 -21 10
-8 0 -14 -4 -14 -10z"/>
<path d="M764 925 c-8 -21 2 -45 20 -45 17 0 28 24 20 45 -4 8 -13 15 -20 15
-8 0 -17 -7 -20 -15z"/>
<path d="M1270 910 c0 -32 23 -42 34 -15 8 21 -3 45 -20 45 -9 0 -14 -11 -14
-30z"/>
<path d="M1440 910 c0 -5 5 -10 10 -10 6 0 10 5 10 10 0 6 -4 10 -10 10 -5 0
-10 -4 -10 -10z"/>
<path d="M1844 925 c-8 -21 3 -45 20 -45 16 0 31 34 21 50 -9 15 -35 12 -41
-5z"/>
<path d="M2190 910 c0 -5 5 -10 10 -10 6 0 10 5 10 10 0 6 -4 10 -10 10 -5 0
-10 -4 -10 -10z"/>
</g>
</svg>
