<?xml version="1.0" encoding="UTF-8"?>
<svg xmlns="http://www.w3.org/2000/svg" xmlns:xlink="http://www.w3.org/1999/xlink" width="300px" height="304px" viewBox="0 0 300 303" version="1.1">
<g id="surface1">
<path style=" stroke:none;fill-rule:evenodd;fill:rgb(10.196078%,32.941176%,57.647059%);fill-opacity:1;" d="M 43.886719 1.8125 L 220.507812 1.8125 L 222.800781 1.859375 L 225.027344 2.046875 L 227.25 2.332031 L 229.425781 2.714844 L 231.558594 3.21875 L 233.664062 3.816406 L 235.714844 4.515625 L 237.714844 5.320312 L 239.671875 6.207031 L 241.574219 7.191406 L 243.429688 8.277344 L 245.222656 9.433594 L 246.945312 10.667969 L 248.613281 12.003906 L 250.222656 13.410156 L 251.746094 14.878906 L 253.21875 16.429688 L 254.597656 18.035156 L 255.921875 19.722656 L 257.144531 21.476562 L 258.285156 23.285156 L 259.34375 25.15625 L 260.324219 27.074219 L 261.222656 29.050781 L 261.992188 31.070312 L 262.695312 33.136719 L 263.285156 35.261719 L 263.785156 37.414062 L 264.167969 39.609375 L 264.449219 41.828125 L 264.625 44.097656 L 264.683594 46.394531 L 264.683594 224.625 L 264.625 226.914062 L 264.449219 229.167969 L 264.167969 231.410156 L 263.785156 233.597656 L 263.285156 235.75 L 262.695312 237.875 L 261.992188 239.929688 L 261.222656 241.949219 L 260.324219 243.9375 L 259.34375 245.84375 L 258.285156 247.714844 L 257.144531 249.519531 L 255.921875 251.273438 L 254.597656 252.945312 L 253.21875 254.566406 L 251.742188 256.121094 L 250.222656 257.589844 L 248.613281 258.992188 L 246.945312 260.3125 L 245.222656 261.550781 L 243.429688 262.703125 L 241.574219 263.773438 L 239.671875 264.757812 L 237.714844 265.660156 L 235.714844 266.445312 L 233.664062 267.148438 L 231.558594 267.75 L 229.425781 268.25 L 227.25 268.632812 L 225.027344 268.917969 L 222.800781 269.101562 L 220.507812 269.152344 L 43.886719 269.152344 L 41.601562 269.101562 L 39.363281 268.917969 L 37.144531 268.632812 L 34.976562 268.25 L 32.820312 267.75 L 30.734375 267.148438 L 28.683594 266.445312 L 26.679688 265.660156 L 24.707031 264.757812 L 22.804688 263.773438 L 20.964844 262.703125 L 19.160156 261.550781 L 17.4375 260.3125 L 15.765625 258.992188 L 14.160156 257.589844 L 12.632812 256.121094 L 11.160156 254.566406 L 9.785156 252.945312 L 8.476562 251.273438 L 7.234375 249.519531 L 6.09375 247.714844 L 5.03125 245.84375 L 4.054688 243.9375 L 3.160156 241.949219 L 2.382812 239.929688 L 1.6875 237.875 L 1.089844 235.753906 L 0.59375 233.597656 L 0.214844 231.410156 L -0.0664062 229.167969 L -0.25 226.914062 L -0.300781 224.625 L -0.300781 46.394531 L -0.25 44.097656 L -0.0664062 41.824219 L 0.214844 39.609375 L 0.59375 37.414062 L 1.089844 35.261719 L 1.6875 33.136719 L 2.382812 31.070312 L 3.164062 29.046875 L 4.054688 27.074219 L 5.03125 25.15625 L 6.09375 23.285156 L 7.234375 21.476562 L 8.476562 19.722656 L 9.785156 18.03125 L 11.160156 16.429688 L 12.632812 14.878906 L 14.15625 13.410156 L 15.765625 12 L 17.4375 10.667969 L 19.160156 9.433594 L 20.964844 8.277344 L 22.800781 7.191406 L 24.707031 6.207031 L 26.675781 5.320312 L 28.679688 4.515625 L 30.734375 3.816406 L 32.820312 3.21875 L 34.976562 2.71875 L 37.144531 2.332031 L 39.363281 2.046875 L 41.597656 1.859375 Z M 43.886719 1.8125 "/>
<path style=" stroke:none;fill-rule:evenodd;fill:rgb(100%,94.901961%,7.058824%);fill-opacity:1;" d="M 21.777344 224.589844 L 42.378906 224.589844 L 42.378906 135.464844 L 21.777344 135.464844 Z M 134.695312 155.847656 L 133.515625 155.847656 L 132.355469 155.886719 L 131.210938 155.933594 L 130.101562 156.003906 L 129.011719 156.066406 L 127.9375 156.167969 L 126.875 156.285156 L 125.832031 156.40625 L 124.820312 156.554688 L 123.828125 156.703125 L 122.847656 156.871094 L 121.886719 157.050781 L 120.960938 157.238281 L 120.050781 157.433594 L 119.152344 157.65625 L 118.28125 157.875 L 117.429688 158.105469 L 116.605469 158.339844 L 115.808594 158.589844 L 115.03125 158.84375 L 114.265625 159.09375 L 113.542969 159.359375 L 112.832031 159.628906 L 112.148438 159.914062 L 111.484375 160.179688 L 110.84375 160.460938 L 110.230469 160.746094 L 109.628906 161.027344 L 109.070312 161.3125 L 108.523438 161.59375 L 108.007812 161.886719 L 107.507812 162.167969 L 111.390625 175.300781 L 111.835938 175.03125 L 112.300781 174.765625 L 112.777344 174.496094 L 113.277344 174.246094 L 113.789062 173.996094 L 114.320312 173.742188 L 114.867188 173.492188 L 115.429688 173.261719 L 116.011719 173.027344 L 116.605469 172.792969 L 117.203125 172.554688 L 117.8125 172.34375 L 118.429688 172.140625 L 119.058594 171.925781 L 119.699219 171.722656 L 120.34375 171.542969 L 121.007812 171.351562 L 121.671875 171.1875 L 122.347656 171.023438 L 123.011719 170.871094 L 123.695312 170.722656 L 124.390625 170.589844 L 125.066406 170.472656 L 125.761719 170.355469 L 126.441406 170.25 L 127.140625 170.171875 L 127.835938 170.085938 L 128.511719 170.039062 L 129.207031 169.984375 L 129.886719 169.9375 L 130.585938 169.921875 L 131.265625 169.921875 L 132.355469 169.9375 L 133.414062 169.984375 L 134.40625 170.070312 L 135.332031 170.171875 L 136.230469 170.324219 L 137.078125 170.488281 L 137.871094 170.683594 L 138.613281 170.90625 L 139.332031 171.15625 L 139.992188 171.421875 L 140.601562 171.707031 L 141.164062 172.003906 L 141.691406 172.328125 L 142.191406 172.65625 L 142.660156 173.011719 L 143.070312 173.359375 L 143.453125 173.726562 L 143.8125 174.113281 L 144.132812 174.484375 L 144.410156 174.867188 L 144.660156 175.269531 L 144.894531 175.652344 L 145.089844 176.03125 L 145.269531 176.417969 L 145.425781 176.800781 L 145.535156 177.171875 L 145.636719 177.539062 L 145.722656 177.886719 L 145.78125 178.242188 L 145.824219 178.570312 L 145.851562 178.894531 L 145.851562 179.90625 L 143.382812 179.929688 L 140.96875 179.992188 L 138.613281 180.113281 L 136.328125 180.277344 L 134.109375 180.496094 L 131.957031 180.78125 L 129.851562 181.09375 L 127.835938 181.480469 L 125.878906 181.894531 L 124.007812 182.382812 L 122.183594 182.917969 L 120.445312 183.5 L 118.792969 184.136719 L 117.203125 184.820312 L 115.675781 185.5625 L 114.234375 186.347656 L 112.878906 187.179688 L 111.601562 188.0625 L 110.394531 188.996094 L 109.285156 190.003906 L 108.242188 191.039062 L 107.300781 192.125 L 106.433594 193.277344 L 105.640625 194.464844 L 104.960938 195.699219 L 104.351562 197.003906 L 103.839844 198.339844 L 103.425781 199.746094 L 103.089844 201.179688 L 102.839844 202.667969 L 102.707031 204.222656 L 102.660156 205.808594 L 102.675781 206.761719 L 102.738281 207.714844 L 102.855469 208.664062 L 103.027344 209.601562 L 103.238281 210.539062 L 103.488281 211.472656 L 103.785156 212.390625 L 104.136719 213.292969 L 104.515625 214.179688 L 104.960938 215.050781 L 105.445312 215.902344 L 105.957031 216.738281 L 106.519531 217.554688 L 107.136719 218.339844 L 107.796875 219.109375 L 108.492188 219.84375 L 109.234375 220.546875 L 110.011719 221.214844 L 110.84375 221.851562 L 111.703125 222.449219 L 112.613281 223.019531 L 113.574219 223.554688 L 114.570312 224.039062 L 115.613281 224.472656 L 116.691406 224.875 L 117.796875 225.222656 L 118.972656 225.527344 L 120.164062 225.777344 L 121.40625 225.976562 L 122.683594 226.128906 L 124.007812 226.210938 L 125.363281 226.242188 L 126.191406 226.226562 L 127.007812 226.195312 L 127.804688 226.160156 L 128.597656 226.09375 L 129.371094 226.011719 L 130.148438 225.910156 L 130.914062 225.792969 L 131.675781 225.660156 L 132.417969 225.492188 L 133.148438 225.324219 L 133.875 225.140625 L 134.59375 224.941406 L 135.285156 224.722656 L 135.980469 224.488281 L 136.65625 224.222656 L 137.320312 223.953125 L 137.964844 223.671875 L 138.613281 223.371094 L 139.246094 223.070312 L 139.859375 222.734375 L 140.453125 222.386719 L 141.027344 222.03125 L 141.613281 221.648438 L 142.160156 221.265625 L 142.707031 220.863281 L 143.234375 220.445312 L 143.75 220.011719 L 144.230469 219.558594 L 144.707031 219.109375 L 145.175781 218.640625 L 145.621094 218.15625 L 146.046875 217.65625 L 146.28125 217.65625 L 148.535156 224.589844 L 165.296875 224.589844 L 165.296875 185.089844 L 165.273438 183.585938 L 165.195312 182.117188 L 165.078125 180.664062 L 164.917969 179.222656 L 164.699219 177.808594 L 164.417969 176.417969 L 164.105469 175.0625 L 163.722656 173.742188 L 163.273438 172.445312 L 162.796875 171.1875 L 162.226562 169.96875 L 161.621094 168.78125 L 160.941406 167.632812 L 160.207031 166.523438 L 159.398438 165.457031 L 158.542969 164.441406 L 157.613281 163.464844 L 156.601562 162.554688 L 155.523438 161.679688 L 154.378906 160.863281 L 153.171875 160.09375 L 151.878906 159.394531 L 150.523438 158.738281 L 149.078125 158.160156 L 147.574219 157.625 L 145.96875 157.167969 L 144.292969 156.765625 L 142.539062 156.4375 L 140.703125 156.183594 L 138.777344 156.003906 L 136.773438 155.886719 Z M 146.445312 199.945312 L 146.445312 200.34375 L 146.429688 200.765625 L 146.398438 201.179688 L 146.367188 201.613281 L 146.3125 202.03125 L 146.265625 202.46875 L 146.195312 202.886719 L 146.101562 203.304688 L 146.0625 203.453125 L 146 203.671875 L 145.953125 203.871094 L 145.898438 204.003906 L 145.839844 204.171875 L 145.769531 204.339844 L 145.589844 204.757812 L 145.386719 205.15625 L 145.175781 205.558594 L 144.941406 205.960938 L 144.691406 206.34375 L 144.425781 206.746094 L 144.148438 207.128906 L 143.851562 207.496094 L 143.53125 207.863281 L 143.21875 208.230469 L 142.867188 208.582031 L 142.511719 208.933594 L 142.144531 209.265625 L 141.761719 209.585938 L 141.347656 209.902344 L 140.9375 210.203125 L 140.5 210.488281 L 140.070312 210.769531 L 139.609375 211.023438 L 139.144531 211.273438 L 138.667969 211.507812 L 138.167969 211.707031 L 137.671875 211.90625 L 137.140625 212.09375 L 136.609375 212.242188 L 136.082031 212.390625 L 135.519531 212.507812 L 134.957031 212.609375 L 134.390625 212.691406 L 133.796875 212.742188 L 133.195312 212.792969 L 132.074219 212.792969 L 131.5625 212.761719 L 131.0625 212.726562 L 130.5625 212.660156 L 130.085938 212.578125 L 129.621094 212.492188 L 129.160156 212.375 L 128.707031 212.242188 L 128.296875 212.109375 L 127.867188 211.941406 L 127.46875 211.757812 L 126.703125 211.355469 L 126.363281 211.121094 L 126.011719 210.871094 L 125.699219 210.621094 L 125.378906 210.335938 L 125.097656 210.035156 L 124.820312 209.734375 L 124.570312 209.402344 L 124.335938 209.050781 L 124.109375 208.699219 L 123.90625 208.316406 L 123.726562 207.929688 L 123.578125 207.53125 L 123.429688 207.09375 L 123.316406 206.660156 L 123.214844 206.210938 L 123.128906 205.726562 L 123.082031 205.242188 L 123.050781 204.738281 L 123.035156 204.222656 L 123.050781 203.636719 L 123.097656 203.085938 L 123.183594 202.535156 L 123.277344 202 L 123.40625 201.5 L 123.578125 200.996094 L 123.773438 200.53125 L 123.992188 200.0625 L 124.242188 199.609375 L 124.507812 199.191406 L 124.804688 198.773438 L 125.128906 198.375 L 125.480469 197.988281 L 125.863281 197.636719 L 126.261719 197.289062 L 126.6875 196.953125 L 127.140625 196.617188 L 127.601562 196.320312 L 128.101562 196.035156 L 128.613281 195.75 L 129.144531 195.484375 L 129.707031 195.234375 L 130.265625 195 L 130.867188 194.78125 L 131.488281 194.5625 L 132.121094 194.378906 L 132.769531 194.195312 L 133.445312 194.011719 L 134.125 193.863281 L 134.839844 193.714844 L 135.550781 193.578125 L 136.296875 193.460938 L 136.992188 193.359375 L 137.71875 193.261719 L 138.449219 193.175781 L 139.210938 193.09375 L 139.96875 193.042969 L 140.765625 192.976562 L 141.558594 192.941406 L 142.378906 192.910156 L 142.867188 192.890625 L 143.367188 192.875 L 143.882812 192.859375 L 146.445312 192.859375 Z M 222.199219 157.804688 L 222.199219 197.539062 L 222.167969 198.105469 L 222.113281 198.660156 L 222.035156 199.191406 L 221.949219 199.726562 L 221.832031 200.226562 L 221.683594 200.730469 L 221.503906 201.199219 L 221.355469 201.582031 L 221.167969 201.964844 L 220.976562 202.351562 L 220.773438 202.734375 L 220.5625 203.101562 L 220.328125 203.488281 L 220.078125 203.871094 L 219.8125 204.238281 L 219.53125 204.605469 L 219.253906 204.972656 L 218.933594 205.339844 L 218.621094 205.691406 L 218.292969 206.027344 L 217.941406 206.359375 L 217.578125 206.675781 L 217.195312 206.996094 L 216.398438 207.597656 L 215.542969 208.132812 L 214.613281 208.597656 L 214.132812 208.816406 L 213.632812 209 L 213.125 209.183594 L 212.597656 209.335938 L 212.042969 209.46875 L 210.921875 209.667969 L 210.320312 209.71875 L 209.730469 209.769531 L 209.097656 209.769531 L 208.332031 209.753906 L 207.59375 209.703125 L 206.859375 209.617188 L 206.167969 209.484375 L 205.503906 209.335938 L 204.855469 209.132812 L 204.25 208.902344 L 203.664062 208.632812 L 203.105469 208.347656 L 202.574219 208.015625 L 202.058594 207.648438 L 201.578125 207.246094 L 201.132812 206.828125 L 200.6875 206.359375 L 200.292969 205.875 L 199.910156 205.359375 L 199.542969 204.808594 L 199.214844 204.222656 L 198.910156 203.605469 L 198.613281 202.96875 L 198.367188 202.300781 L 198.117188 201.597656 L 197.90625 200.863281 L 197.71875 200.109375 L 197.554688 199.328125 L 197.40625 198.523438 L 197.289062 197.6875 L 197.1875 196.820312 L 197.109375 195.933594 L 197.054688 195.015625 L 197.023438 194.078125 L 197.011719 193.109375 L 197.011719 157.773438 L 176.902344 157.773438 L 176.902344 197.804688 L 176.933594 198.757812 L 176.972656 199.675781 L 177.019531 200.597656 L 177.089844 201.5 L 177.167969 202.382812 L 177.269531 203.234375 L 177.371094 204.089844 L 177.503906 204.90625 L 177.632812 205.707031 L 177.785156 206.492188 L 177.960938 207.261719 L 178.148438 208.015625 L 178.34375 208.75 L 178.546875 209.46875 L 178.773438 210.152344 L 179.007812 210.839844 L 179.269531 211.507812 L 179.519531 212.160156 L 179.800781 212.792969 L 180.082031 213.410156 L 180.363281 214.011719 L 180.683594 214.597656 L 180.996094 215.183594 L 181.304688 215.734375 L 181.640625 216.285156 L 181.992188 216.820312 L 182.351562 217.320312 L 182.71875 217.824219 L 183.097656 218.308594 L 183.480469 218.773438 L 183.875 219.226562 L 184.289062 219.675781 L 185.148438 220.511719 L 185.585938 220.898438 L 186.042969 221.28125 L 186.496094 221.648438 L 186.972656 222 L 187.453125 222.335938 L 187.953125 222.652344 L 188.445312 222.953125 L 188.960938 223.234375 L 189.472656 223.519531 L 190.003906 223.769531 L 190.546875 224.019531 L 191.09375 224.238281 L 191.664062 224.457031 L 192.238281 224.65625 L 192.800781 224.839844 L 193.402344 225.023438 L 193.976562 225.175781 L 194.59375 225.324219 L 195.183594 225.457031 L 195.800781 225.59375 L 196.433594 225.691406 L 197.054688 225.792969 L 197.6875 225.875 L 198.980469 226.011719 L 199.644531 226.0625 L 200.304688 226.078125 L 200.984375 226.109375 L 202.261719 226.109375 L 202.839844 226.09375 L 203.402344 226.078125 L 203.960938 226.042969 L 204.53125 225.992188 L 205.078125 225.945312 L 205.621094 225.890625 L 206.152344 225.808594 L 206.664062 225.742188 L 207.179688 225.640625 L 207.695312 225.558594 L 208.1875 225.441406 L 208.667969 225.34375 L 209.152344 225.207031 L 209.628906 225.074219 L 210.09375 224.941406 L 210.984375 224.640625 L 211.863281 224.324219 L 212.691406 223.988281 L 213.5 223.652344 L 214.28125 223.285156 L 215.027344 222.917969 L 215.738281 222.519531 L 216.414062 222.117188 L 217.0625 221.699219 L 217.695312 221.28125 L 218.292969 220.847656 L 218.871094 220.414062 L 219.414062 219.960938 L 219.929688 219.492188 L 220.414062 219.023438 L 220.875 218.542969 L 221.316406 218.074219 L 221.738281 217.605469 L 222.113281 217.15625 L 222.476562 216.71875 L 222.828125 216.300781 L 223.140625 215.882812 L 223.421875 215.5 L 223.6875 215.097656 L 226.273438 224.589844 L 242.601562 224.589844 L 242.601562 157.804688 Z M 61.707031 135.464844 L 61.707031 157.773438 L 52.316406 157.773438 L 52.316406 172.996094 L 61.707031 172.996094 L 61.707031 200.160156 L 61.722656 200.996094 L 61.738281 201.816406 L 61.753906 202.632812 L 61.789062 203.421875 L 61.839844 204.203125 L 61.90625 204.972656 L 61.96875 205.726562 L 62.054688 206.476562 L 62.136719 207.195312 L 62.234375 207.914062 L 62.351562 208.617188 L 62.484375 209.300781 L 62.617188 209.96875 L 62.765625 210.640625 L 62.914062 211.273438 L 63.078125 211.90625 L 63.261719 212.527344 L 63.460938 213.128906 L 63.660156 213.710938 L 63.875 214.28125 L 64.105469 214.847656 L 64.339844 215.382812 L 64.585938 215.917969 L 64.851562 216.417969 L 65.117188 216.921875 L 65.398438 217.40625 L 65.695312 217.875 L 66.011719 218.339844 L 66.324219 218.773438 L 66.65625 219.191406 L 67.003906 219.609375 L 67.351562 219.996094 L 67.683594 220.328125 L 68.015625 220.664062 L 68.710938 221.296875 L 69.089844 221.597656 L 69.472656 221.898438 L 69.886719 222.199219 L 70.714844 222.769531 L 71.160156 223.035156 L 71.609375 223.285156 L 72.070312 223.554688 L 72.554688 223.789062 L 73.03125 224.019531 L 73.546875 224.253906 L 74.042969 224.457031 L 74.574219 224.671875 L 75.101562 224.859375 L 75.648438 225.039062 L 76.195312 225.207031 L 76.757812 225.375 L 77.339844 225.507812 L 77.917969 225.640625 L 78.515625 225.757812 L 79.109375 225.875 L 79.726562 225.976562 L 80.335938 226.042969 L 81.597656 226.175781 L 82.242188 226.210938 L 82.890625 226.226562 L 83.550781 226.242188 L 84.644531 226.226562 L 85.648438 226.195312 L 86.601562 226.144531 L 87.457031 226.078125 L 88.269531 225.992188 L 89.015625 225.890625 L 89.726562 225.777344 L 90.371094 225.640625 L 91.003906 225.507812 L 91.578125 225.359375 L 92.671875 225.023438 L 93.699219 224.65625 L 94.714844 224.273438 L 94.714844 208.75 L 94.449219 208.847656 L 94.097656 208.949219 L 93.683594 209.050781 L 93.167969 209.132812 L 92.59375 209.21875 L 91.945312 209.265625 L 91.253906 209.316406 L 90.503906 209.335938 L 89.84375 209.316406 L 89.226562 209.285156 L 88.632812 209.21875 L 88.070312 209.117188 L 87.542969 209 L 87.042969 208.867188 L 86.5625 208.699219 L 86.117188 208.5 L 85.703125 208.28125 L 85.304688 208.046875 L 84.925781 207.765625 L 84.589844 207.480469 L 84.261719 207.164062 L 83.964844 206.828125 L 83.683594 206.460938 L 83.4375 206.058594 L 83.203125 205.660156 L 82.984375 205.207031 L 82.789062 204.757812 L 82.601562 204.273438 L 82.304688 203.234375 L 82.070312 202.101562 L 81.992188 201.5 L 81.910156 200.863281 L 81.847656 200.226562 L 81.792969 199.558594 L 81.761719 198.859375 L 81.730469 198.15625 L 81.714844 197.421875 L 81.714844 172.996094 L 94.492188 172.996094 L 94.492188 157.773438 L 81.714844 157.773438 L 81.714844 135.46875 Z M 214.597656 135.449219 L 202.175781 153.464844 L 216.546875 153.464844 L 234.058594 135.449219 Z M 214.597656 135.449219 "/>
</g>
</svg>
