<?xml version="1.0" encoding="UTF-8"?>
<svg xmlns="http://www.w3.org/2000/svg" xmlns:xlink="http://www.w3.org/1999/xlink" width="240px" height="64px" viewBox="0 0 240 64" version="1.1">
<g id="surface1">
<path style=" stroke:none;fill-rule:nonzero;fill:rgb(20.392157%,65.882353%,32.54902%);fill-opacity:1;" d="M 19.640625 0.0195312 C 17.582031 0.0234375 15.691406 1.160156 14.722656 2.984375 C 13.753906 4.808594 13.867188 7.019531 15.015625 8.734375 L 17.398438 6.347656 C 17.320312 6.109375 17.28125 5.863281 17.28125 5.609375 C 17.28125 4.308594 18.332031 3.253906 19.632812 3.253906 C 20.929688 3.253906 21.980469 4.308594 21.980469 5.609375 C 21.980469 6.914062 20.929688 7.96875 19.632812 7.96875 C 19.382812 7.96875 19.136719 7.929688 18.898438 7.851562 L 16.519531 10.238281 C 18.5 11.585938 21.117188 11.515625 23.019531 10.0625 C 24.925781 8.605469 25.691406 6.097656 24.925781 3.820312 C 24.160156 1.546875 22.035156 0.015625 19.640625 0.0195312 Z M 19.640625 0.0195312 "/>
<path style=" stroke:none;fill-rule:nonzero;fill:rgb(98.431373%,73.72549%,1.568627%);fill-opacity:1;" d="M 17.425781 16.3125 C 17.429688 14.425781 16.820312 12.585938 15.6875 11.078125 L 12.597656 14.171875 C 13.566406 15.945312 13.21875 18.152344 11.753906 19.539062 L 13.433594 23.65625 C 15.917969 22.046875 17.421875 19.28125 17.425781 16.3125 Z M 17.425781 16.3125 "/>
<path style=" stroke:none;fill-rule:nonzero;fill:rgb(91.764706%,26.27451%,20.784314%);fill-opacity:1;" d="M 8.792969 20.757812 L 8.710938 20.757812 C 6.816406 20.757812 5.128906 19.550781 4.515625 17.75 C 3.902344 15.953125 4.496094 13.960938 5.996094 12.796875 C 7.492188 11.628906 9.5625 11.546875 11.144531 12.59375 L 14.203125 9.523438 C 11.230469 7.101562 7.027344 6.917969 3.851562 9.0625 C 0.675781 11.210938 -0.730469 15.1875 0.386719 18.863281 C 1.503906 22.539062 4.882812 25.050781 8.710938 25.054688 C 9.300781 25.054688 9.890625 24.996094 10.46875 24.878906 Z M 8.792969 20.757812 "/>
<path style=" stroke:none;fill-rule:nonzero;fill:rgb(25.882353%,52.156863%,95.686275%);fill-opacity:1;" d="M 19.757812 24.320312 C 17.824219 24.316406 15.902344 24.601562 14.050781 25.160156 L 16.496094 31.160156 C 17.5625 30.894531 18.65625 30.761719 19.753906 30.761719 C 26.117188 30.765625 31.589844 35.277344 32.832031 41.535156 C 34.070312 47.796875 30.730469 54.066406 24.851562 56.507812 C 18.976562 58.949219 12.195312 56.886719 8.664062 51.578125 C 5.128906 46.269531 5.824219 39.195312 10.324219 34.683594 C 11.261719 33.742188 12.332031 32.949219 13.503906 32.324219 L 11.082031 26.339844 C 2.054688 30.773438 -2.214844 41.296875 1.148438 50.800781 C 4.515625 60.300781 14.449219 65.757812 24.238281 63.480469 C 34.027344 61.203125 40.558594 51.917969 39.417969 41.898438 C 38.273438 31.882812 29.824219 24.316406 19.773438 24.316406 Z M 19.757812 24.320312 "/>
<path style=" stroke:none;fill-rule:nonzero;fill:rgb(37.254902%,38.823529%,40.784314%);fill-opacity:1;" d="M 58.671875 8.222656 L 64.230469 8.222656 L 64.230469 50.320312 L 84.6875 50.320312 L 84.6875 55.621094 L 58.671875 55.621094 Z M 58.671875 8.222656 "/>
<path style=" stroke:none;fill-rule:nonzero;fill:rgb(37.254902%,38.823529%,40.784314%);fill-opacity:1;" d="M 92.746094 53.339844 C 90.234375 51.847656 88.183594 49.6875 86.816406 47.101562 C 85.382812 44.421875 84.652344 41.421875 84.6875 38.382812 C 84.65625 35.347656 85.386719 32.351562 86.816406 29.675781 C 88.183594 27.089844 90.234375 24.933594 92.746094 23.4375 C 98.046875 20.378906 104.570312 20.378906 109.871094 23.4375 C 112.378906 24.933594 114.429688 27.089844 115.804688 29.675781 C 117.234375 32.355469 117.964844 35.355469 117.929688 38.394531 C 117.964844 41.4375 117.234375 44.4375 115.804688 47.117188 C 114.433594 49.699219 112.382812 51.859375 109.875 53.355469 C 104.570312 56.414062 98.050781 56.414062 92.75 53.355469 Z M 106.847656 49.238281 C 108.59375 48.210938 110.023438 46.726562 110.980469 44.941406 C 112.054688 42.925781 112.589844 40.667969 112.535156 38.382812 C 112.589844 36.097656 112.054688 33.839844 110.980469 31.824219 C 110.027344 30.039062 108.597656 28.554688 106.859375 27.527344 C 105.175781 26.539062 103.257812 26.023438 101.308594 26.03125 C 97.246094 26.015625 93.503906 28.242188 91.570312 31.824219 C 90.5 33.839844 89.964844 36.097656 90.019531 38.382812 C 89.964844 40.664062 90.5 42.925781 91.570312 44.941406 C 93 47.574219 95.429688 49.515625 98.3125 50.324219 C 101.191406 51.132812 104.273438 50.742188 106.859375 49.238281 Z M 106.847656 49.238281 "/>
<path style=" stroke:none;fill-rule:nonzero;fill:rgb(37.254902%,38.823529%,40.784314%);fill-opacity:1;" d="M 128.871094 53.339844 C 126.363281 51.84375 124.3125 49.6875 122.941406 47.101562 C 121.511719 44.421875 120.777344 41.421875 120.8125 38.382812 C 120.78125 35.347656 121.511719 32.351562 122.941406 29.675781 C 124.3125 27.089844 126.363281 24.933594 128.871094 23.4375 C 134.171875 20.378906 140.695312 20.378906 145.996094 23.4375 C 148.503906 24.933594 150.558594 27.089844 151.929688 29.675781 C 153.359375 32.355469 154.089844 35.355469 154.054688 38.394531 C 154.089844 41.4375 153.359375 44.4375 151.929688 47.117188 C 150.558594 49.703125 148.507812 51.859375 146 53.355469 C 140.699219 56.414062 134.175781 56.414062 128.875 53.355469 Z M 142.972656 49.238281 C 144.714844 48.210938 146.140625 46.722656 147.097656 44.941406 C 148.167969 42.925781 148.703125 40.667969 148.652344 38.382812 C 148.703125 36.097656 148.167969 33.839844 147.097656 31.824219 C 146.140625 30.042969 144.714844 28.554688 142.972656 27.527344 C 141.289062 26.539062 139.375 26.023438 137.421875 26.03125 C 135.460938 26.023438 133.535156 26.542969 131.839844 27.527344 C 130.085938 28.546875 128.644531 30.035156 127.683594 31.824219 C 126.613281 33.839844 126.078125 36.097656 126.128906 38.382812 C 126.074219 40.667969 126.613281 42.925781 127.683594 44.941406 C 128.644531 46.730469 130.085938 48.21875 131.839844 49.238281 C 133.535156 50.222656 135.460938 50.738281 137.421875 50.734375 C 139.378906 50.746094 141.300781 50.226562 142.988281 49.238281 Z M 142.972656 49.238281 "/>
<path style=" stroke:none;fill-rule:nonzero;fill:rgb(37.254902%,38.823529%,40.784314%);fill-opacity:1;" d="M 158.046875 8.222656 L 163.601562 8.222656 L 163.601562 38.1875 L 180.324219 21.140625 L 187.375 21.140625 L 187.375 21.402344 L 173.273438 35.691406 L 186.738281 55.371094 L 186.738281 55.621094 L 180.078125 55.621094 L 169.355469 39.546875 L 163.601562 45.335938 L 163.601562 55.621094 L 158.046875 55.621094 Z M 158.046875 8.222656 "/>
<path style=" stroke:none;fill-rule:nonzero;fill:rgb(37.254902%,38.823529%,40.784314%);fill-opacity:1;" d="M 193.90625 53.40625 C 191.464844 51.929688 189.476562 49.804688 188.164062 47.261719 C 186.765625 44.535156 186.058594 41.503906 186.105469 38.4375 C 186.085938 35.453125 186.75 32.503906 188.046875 29.820312 C 189.273438 27.242188 191.183594 25.050781 193.566406 23.484375 C 196.011719 21.898438 198.871094 21.078125 201.78125 21.125 C 204.953125 21.125 207.703125 21.835938 210.03125 23.257812 C 212.347656 24.664062 214.210938 26.710938 215.402344 29.148438 C 216.6875 31.835938 217.324219 34.785156 217.261719 37.761719 C 217.261719 38.316406 217.21875 38.871094 217.136719 39.417969 L 191.496094 39.417969 C 191.625 41.886719 192.214844 43.96875 193.273438 45.65625 C 194.246094 47.273438 195.640625 48.59375 197.304688 49.476562 C 198.875 50.3125 200.628906 50.75 202.410156 50.75 C 206.636719 50.75 209.828125 48.796875 211.988281 44.894531 L 216.554688 47.121094 C 215.25 49.652344 213.304688 51.792969 210.910156 53.328125 C 208.5 54.855469 205.601562 55.621094 202.21875 55.621094 C 199.296875 55.671875 196.417969 54.902344 193.90625 53.40625 Z M 211.554688 34.945312 C 211.453125 33.523438 211.0625 32.136719 210.414062 30.871094 C 209.683594 29.457031 208.585938 28.269531 207.238281 27.433594 C 205.800781 26.5 203.984375 26.03125 201.785156 26.03125 C 199.394531 25.976562 197.074219 26.855469 195.316406 28.480469 C 193.539062 30.117188 192.375 32.273438 191.824219 34.945312 Z M 211.554688 34.945312 "/>
<path style=" stroke:none;fill-rule:nonzero;fill:rgb(37.254902%,38.823529%,40.784314%);fill-opacity:1;" d="M 220.847656 21.144531 L 226.140625 21.144531 L 226.140625 27.546875 L 226.402344 27.546875 C 227.058594 25.710938 228.320312 24.179688 230.195312 22.957031 C 231.929688 21.78125 233.972656 21.144531 236.066406 21.128906 C 237.410156 21.09375 238.746094 21.339844 239.988281 21.855469 L 239.988281 27.820312 C 238.527344 27.105469 236.917969 26.746094 235.289062 26.769531 C 233.699219 26.761719 232.148438 27.246094 230.84375 28.152344 C 229.472656 29.09375 228.359375 30.371094 227.605469 31.859375 C 226.800781 33.410156 226.386719 35.140625 226.398438 36.890625 L 226.398438 55.621094 L 220.847656 55.621094 Z M 220.847656 21.144531 "/>
</g>
</svg>
