<?xml version="1.0" encoding="utf-8"?>
<!-- Generator: Adobe Illustrator 26.5.0, SVG Export Plug-In . SVG Version: 6.00 Build 0)  -->
<svg version="1.1" id="Camada_1" xmlns="http://www.w3.org/2000/svg" xmlns:xlink="http://www.w3.org/1999/xlink" x="0px" y="0px"
	 viewBox="0 0 594.2 232.7" style="enable-background:new 0 0 594.2 232.7;" xml:space="preserve">
<style type="text/css">
	.st0{fill:#19F0F0;}
	.st1{fill:#FFFFFF;}
</style>
<g>
	<path class="st0" d="M168.6,0c-9.3,0-16.9,7.5-16.9,16.9s7.5,16.9,16.9,16.9s16.9-7.5,16.9-16.9S177.9,0,168.6,0
		C168.6,0,168.6,0,168.6,0"/>
	<path class="st0" d="M118,131.5c-9.3,0-16.9,7.5-16.9,16.9s7.5,16.9,16.9,16.9s16.9-7.5,16.9-16.9S127.3,131.5,118,131.5L118,131.5
		"/>
	<path class="st1" d="M322.1,152.7c-9.3-1-17.6,5.7-18.5,15c0,0,0,0,0,0c-2,19.2-19.3,33.2-38.5,31.1c-9.5-1-18.2-5.9-24.1-13.5
		c-5.7-7.4-16.3-8.8-23.6-3.1c-7.4,5.7-8.8,16.3-3.1,23.6l0,0c12.9,16.9,33,26.8,54.3,26.9c6.4,0,12.7-0.9,18.9-2.6
		c27.1-7.6,46.8-30.9,49.7-58.9C338.1,161.9,331.4,153.6,322.1,152.7C322.1,152.7,322.1,152.7,322.1,152.7"/>
	<path class="st1" d="M327.2,62.5c8.5-3.9,12.1-13.9,8.2-22.4c-2.8-6-8.7-9.8-15.3-9.8h-50.4c-37.3,0-67.5,30.2-67.6,67.4
		c0,37.3,30.2,67.5,67.4,67.6c37.3,0,67.5-30.2,67.6-67.4C337.2,85.4,333.7,73.2,327.2,62.5 M269.7,131.5
		c-18.6,0-33.7-15.1-33.7-33.7s15.1-33.7,33.7-33.7s33.7,15.1,33.7,33.7c0,0,0,0,0,0C303.4,116.4,288.3,131.5,269.7,131.5"/>
	<path class="st1" d="M118,30.4H16.9C7.5,30.4,0,37.9,0,47.2c0,9.3,7.5,16.9,16.9,16.9h60.4L4.9,136.5c-6.6,6.6-6.6,17.3,0,23.8
		c3.2,3.2,7.4,4.9,11.9,4.9h64c9.3-0.1,16.8-7.7,16.7-17c-0.1-9.2-7.5-16.7-16.7-16.7H57.6l72.3-72.4c6.6-6.6,6.6-17.3,0-23.8
		C126.7,32.1,122.4,30.4,118,30.4"/>
	<path class="st1" d="M168.6,36.9c-9.3,0-16.9,7.5-16.9,16.9l0,0v94.6c0,9.3,7.5,16.9,16.9,16.9s16.9-7.5,16.9-16.9l0,0V53.8
		C185.4,44.4,177.9,36.9,168.6,36.9L168.6,36.9"/>
	<path class="st1" d="M371.7,47.2h26.2v6.2H388v27.6h-6.4V53.4h-9.9L371.7,47.2z"/>
	<path class="st1" d="M414.4,56c1.3,0,2.5,0.2,3.7,0.7c1.1,0.5,2.1,1.2,3,2.1c0.9,1,1.5,2.1,2,3.3c0.5,1.4,0.7,2.9,0.7,4.3v14.5
		h-6.2V67.3c0.1-1.4-0.4-2.8-1.4-3.9c-2.1-2-5.3-2-7.3,0c-1,1.1-1.5,2.4-1.4,3.9v13.7h-6.2V47.2h6.2v11.5c0.5-0.5,1-1,1.7-1.3
		c0.7-0.4,1.4-0.7,2.2-0.9C412.3,56.2,413.4,56,414.4,56"/>
	<path class="st1" d="M451,73.4c-0.4,1-0.9,1.9-1.5,2.8c-0.7,0.9-1.5,1.8-2.4,2.5c-1,0.7-2.1,1.4-3.2,1.8c-1.2,0.5-2.6,0.7-3.9,0.7
		c-1.6,0-3.2-0.3-4.7-1c-1.5-0.6-2.8-1.6-3.9-2.7c-1.1-1.2-2-2.5-2.7-4c-1.3-3.1-1.3-6.7,0-9.8c0.6-1.5,1.5-2.8,2.7-4
		c1.1-1.1,2.4-2.1,3.9-2.7c3-1.3,6.3-1.3,9.3-0.1c1.4,0.6,2.7,1.5,3.7,2.6c1.1,1.2,2,2.5,2.5,4c0.6,1.6,1,3.4,0.9,5.1
		c0,0.3,0,0.6-0.1,0.8l-0.1,0.8c0,0.3-0.1,0.6-0.1,0.8h-17.1c0.3,1.2,0.9,2.3,1.8,3.1c1.1,0.9,2.4,1.3,3.8,1.2
		c0.7,0,1.4-0.1,2.1-0.3c0.5-0.2,1-0.4,1.4-0.6c0.4-0.3,0.8-0.6,1.1-1L451,73.4z M440,61.9c-1.4-0.1-2.9,0.4-3.9,1.4
		c-1,0.9-1.7,2.1-2,3.4h11.8c-0.3-1.3-1-2.5-2-3.4C442.9,62.4,441.4,61.9,440,61.9"/>
	<path class="st1" d="M477.5,56c1,0,2,0.1,2.9,0.4c0.8,0.2,1.5,0.5,2.2,0.9c0.7,0.4,1.3,0.8,1.9,1.3l1.1-2.4h4.5v23
		c0.1,2.9-1,5.7-3.1,7.8c-2.1,2-5,2.9-8.7,2.9c-1.9,0.1-3.8-0.3-5.5-1.2c-1.3-0.7-2.4-1.7-3.3-2.8c-0.9-1.2-1.6-2.6-2.1-4h6.2
		c0.3,0.5,0.6,0.9,1,1.2c0.5,0.3,1,0.6,1.5,0.8c0.7,0.3,1.5,0.4,2.3,0.4c1.5,0.1,3-0.4,4.1-1.4c1-1,1.5-2.3,1.5-3.7v-1.9
		c-0.5,0.5-1.1,1-1.7,1.3c-0.6,0.4-1.3,0.7-2,0.9c-0.9,0.3-1.8,0.4-2.7,0.4c-1.5,0-3-0.3-4.4-0.9c-1.4-0.6-2.6-1.4-3.6-2.5
		c-1-1.1-1.9-2.4-2.4-3.8c-1.2-3.1-1.2-6.5,0-9.6c0.6-1.4,1.4-2.7,2.4-3.8c1-1.1,2.2-1.9,3.6-2.5C474.5,56.4,476,56,477.5,56
		 M472.4,68.1c0,0.8,0.1,1.6,0.5,2.4c0.6,1.5,1.7,2.6,3.1,3.3c0.7,0.3,1.5,0.5,2.3,0.5c0.8,0,1.5-0.2,2.2-0.5
		c0.7-0.3,1.3-0.8,1.9-1.3c0.5-0.6,1-1.2,1.3-2c0.6-1.5,0.6-3.3,0-4.8c-0.3-0.7-0.7-1.4-1.3-2c-0.5-0.6-1.2-1-1.9-1.3
		c-0.7-0.3-1.5-0.5-2.2-0.5c-0.8,0-1.6,0.2-2.3,0.5c-1.4,0.6-2.6,1.8-3.1,3.3C472.6,66.4,472.4,67.3,472.4,68.1"/>
	<path class="st1" d="M495.6,47.2h6.2v33.7h-6.2V47.2z"/>
	<path class="st1" d="M530.6,68.6c0,1.7-0.3,3.4-1,4.9c-0.6,1.5-1.5,2.8-2.7,4c-1.1,1.1-2.4,2.1-3.9,2.7c-3,1.3-6.5,1.3-9.5,0
		c-1.5-0.6-2.8-1.6-3.9-2.7c-1.1-1.2-2-2.5-2.7-4c-1.3-3.1-1.3-6.7,0-9.8c0.6-1.5,1.5-2.8,2.7-4c1.1-1.1,2.4-2.1,3.9-2.7
		c3-1.3,6.5-1.3,9.5,0c1.5,0.6,2.8,1.6,3.9,2.7c1.1,1.2,2,2.5,2.7,4C530.3,65.3,530.6,66.9,530.6,68.6 M512.1,68.6
		c-0.1,1.8,0.5,3.6,1.8,4.9c2.4,2.4,6.3,2.4,8.8,0c0,0,0,0,0,0c2.4-2.8,2.4-6.9,0-9.7c-2.4-2.4-6.3-2.4-8.8,0c0,0,0,0,0,0
		C512.7,65.1,512,66.8,512.1,68.6"/>
	<path class="st1" d="M547.3,81.2c-1,0-2-0.1-2.9-0.4c-0.8-0.2-1.5-0.5-2.2-0.9c-0.7-0.4-1.3-0.8-1.9-1.3l-1.1,2.4h-4.5V47.2h6.2
		v11.2c0.5-0.4,1.1-0.8,1.7-1.2c0.7-0.3,1.3-0.6,2-0.8c0.9-0.3,1.8-0.4,2.7-0.4c1.5,0,3,0.3,4.4,0.9c1.4,0.6,2.6,1.5,3.7,2.6
		c1.1,1.2,1.9,2.5,2.5,4c1.2,3.2,1.2,6.8,0,10.1c-0.6,1.5-1.4,2.8-2.5,4c-1,1.1-2.3,2-3.7,2.6C550.3,80.9,548.8,81.2,547.3,81.2
		 M540.4,68.6c-0.1,1.8,0.5,3.6,1.8,4.9c2.4,2.4,6.3,2.4,8.8,0c0,0,0,0,0,0c2.4-2.8,2.4-6.9,0-9.7c-2.4-2.4-6.3-2.4-8.8,0
		c0,0,0,0,0,0C540.9,65.1,540.3,66.8,540.4,68.6"/>
	<path class="st1" d="M573.2,56c1.3,0,2.6,0.2,3.9,0.7c2.3,0.9,4.1,2.7,5.1,5.1c0.5,1.2,0.7,2.5,0.7,3.9v15.3h-4.5l-1.1-2.4
		c-0.6,0.5-1.2,1-1.9,1.3c-0.7,0.4-1.4,0.7-2.2,0.9c-0.9,0.3-1.9,0.4-2.9,0.4c-2.2,0.2-4.4-0.5-6.2-2c-1.4-1.3-2.2-3.1-2.1-5
		c0-1.2,0.2-2.3,0.7-3.3c0.5-1.1,1.4-2,2.4-2.6c1.4-0.8,2.9-1.4,4.5-1.7c2.3-0.5,4.7-0.7,7-0.6c0.1-1.2-0.3-2.3-1.1-3.2
		c-0.8-0.8-1.8-1.2-2.9-1.1c-0.7,0-1.4,0.1-2,0.4c-0.4,0.2-0.8,0.5-1.2,0.9c-0.3,0.4-0.5,0.8-0.6,1.3h-6.2c0.1-1.1,0.5-2.2,1-3.2
		c0.5-1,1.2-1.9,2.1-2.6c0.9-0.8,2-1.4,3.2-1.8C570.4,56.3,571.8,56,573.2,56 M571.3,76.4c1.4,0.1,2.8-0.4,3.9-1.4
		c1-1,1.5-2.3,1.5-3.7v-1.1c-1.5,0-2.9,0.1-4.4,0.2c-0.9,0.1-1.8,0.3-2.6,0.7c-0.5,0.2-1,0.6-1.3,1.1c-0.2,0.5-0.3,0.9-0.3,1.4
		c0,0.7,0.4,1.4,0.9,1.8C569.6,76.1,570.5,76.4,571.3,76.4"/>
	<path class="st1" d="M588.1,47.2h6.2v33.7h-6.2V47.2z"/>
	<path class="st1" d="M374.9,113.1H372v-5.6h2.9v-1.1c0-1.2,0.2-2.5,0.6-3.6c0.4-1,1-2,1.7-2.8c0.7-0.8,1.6-1.4,2.6-1.8
		c1.1-0.4,2.2-0.6,3.3-0.6c0.4,0,0.8,0,1.1,0.1c0.4,0.1,0.7,0.1,1,0.2c0.3,0.1,0.6,0.2,0.9,0.3v5.4l-0.4-0.1c-0.1,0-0.3-0.1-0.5-0.1
		c-0.2,0-0.5-0.1-0.7-0.1c-1.8-0.1-3.3,1.2-3.5,3c0,0.2,0,0.3,0,0.5v0.8h5.1v5.6h-5.1v18.5h-6.2L374.9,113.1z"/>
	<path class="st1" d="M399.7,131.8c-1.4,0-2.7-0.2-4-0.7c-1.2-0.5-2.3-1.2-3.1-2.1c-0.9-0.9-1.6-2.1-2-3.3c-0.5-1.4-0.7-2.9-0.7-4.3
		v-14.4h6.2v13.7c-0.1,1.4,0.4,2.8,1.4,3.9c2.1,2,5.3,2,7.3,0c1-1.1,1.5-2.4,1.4-3.9v-13.7h6.2v24.6h-4.5l-1.1-2.4
		c-0.6,0.5-1.3,1-2,1.3c-0.7,0.4-1.4,0.7-2.2,0.9C401.6,131.7,400.6,131.8,399.7,131.8"/>
	<path class="st1" d="M430.4,106.6c1.4,0,2.7,0.2,4,0.7c1.2,0.5,2.3,1.2,3.1,2.1c0.9,0.9,1.6,2.1,2,3.3c0.5,1.4,0.7,2.9,0.7,4.3
		v14.5h-6.2v-13.7c0.1-1.4-0.4-2.8-1.4-3.9c-2.1-2-5.3-2-7.3,0c-1,1.1-1.5,2.4-1.4,3.9v13.7h-6.2v-24.6h4.5l1.1,2.4
		c0.6-0.5,1.3-1,2-1.3c0.7-0.4,1.4-0.7,2.2-0.9C428.5,106.8,429.4,106.6,430.4,106.6"/>
	<path class="st1" d="M448.2,101h5.4v5.9h5.3v5.6h-5.4v10.2c-0.1,1.8,1.2,3.3,3,3.5c0.2,0,0.3,0,0.5,0c0.3,0,0.5,0,0.7,0
		c0.2,0,0.3,0,0.5-0.1c0.1,0,0.3-0.1,0.4-0.2v5.4c-0.3,0.1-0.6,0.2-0.9,0.3c-0.7,0.2-1.4,0.3-2.1,0.3c-1.1,0-2.3-0.2-3.3-0.6
		c-1-0.4-1.9-1-2.6-1.8c-0.7-0.8-1.3-1.8-1.7-2.8c-0.4-1.2-0.6-2.4-0.6-3.6v-10.4h-3.7v-5.1h1.6c1.4,0.2,2.7-0.8,2.9-2.2
		c0-0.2,0-0.5,0-0.8L448.2,101z"/>
	<path class="st1" d="M485,124c-0.4,1-0.9,1.9-1.5,2.8c-0.7,0.9-1.5,1.8-2.4,2.5c-1,0.8-2.1,1.4-3.2,1.8c-1.2,0.5-2.6,0.7-3.9,0.7
		c-1.6,0-3.2-0.3-4.7-1c-1.5-0.6-2.8-1.6-3.9-2.7c-1.1-1.2-2-2.5-2.7-4c-1.3-3.1-1.3-6.7,0-9.8c0.6-1.5,1.5-2.8,2.7-4
		c1.1-1.1,2.4-2.1,3.9-2.7c3-1.3,6.3-1.3,9.3-0.1c1.4,0.6,2.7,1.5,3.7,2.6c1.1,1.2,2,2.5,2.5,4c0.6,1.6,1,3.4,0.9,5.1
		c0,0.3,0,0.6-0.1,0.8c0,0.3-0.1,0.5-0.1,0.8c0,0.3-0.1,0.6-0.1,0.8h-17.1c0.3,1.2,0.9,2.3,1.8,3.1c1.1,0.9,2.4,1.3,3.8,1.2
		c0.7,0,1.4-0.1,2.1-0.3c0.5-0.2,1-0.4,1.4-0.6c0.4-0.3,0.8-0.6,1.1-1L485,124z M474,112.5c-1.4-0.1-2.9,0.4-3.9,1.4
		c-1,0.9-1.7,2.1-2,3.4h11.8c-0.3-1.3-1-2.5-2-3.4C476.9,113,475.5,112.5,474,112.5"/>
	<path class="st1" d="M512.5,122.4c-0.3,1.2-0.8,2.4-1.4,3.5c-0.7,1.1-1.5,2.1-2.5,3c-1,0.9-2.2,1.6-3.4,2.1
		c-1.3,0.5-2.7,0.8-4.1,0.8c-1.6,0-3.2-0.3-4.7-1c-1.5-0.6-2.8-1.6-3.9-2.7c-1.1-1.2-2-2.5-2.7-4c-1.3-3.1-1.3-6.7,0-9.8
		c0.6-1.5,1.5-2.8,2.7-4c1.1-1.1,2.4-2.1,3.9-2.7c1.5-0.7,3.1-1,4.7-1c1.4,0,2.8,0.3,4.1,0.8c1.3,0.5,2.4,1.2,3.4,2.1
		c1,0.9,1.8,1.9,2.5,3c0.7,1.1,1.1,2.3,1.4,3.5h-6.2c-0.3-0.6-0.7-1.2-1.2-1.7c-0.5-0.5-1.1-0.9-1.7-1.2c-0.8-0.4-1.6-0.6-2.5-0.6
		c-1.7,0-3.2,0.6-4.4,1.8c-2.4,2.8-2.4,6.9,0,9.7c1.1,1.2,2.7,1.9,4.4,1.8c0.9,0,1.7-0.2,2.5-0.5c0.6-0.3,1.2-0.7,1.7-1.2
		c0.5-0.5,0.9-1.1,1.2-1.8L512.5,122.4z"/>
	<path class="st1" d="M529.5,106.6c1.3,0,2.5,0.2,3.7,0.7c1.1,0.5,2.1,1.2,3,2.1c0.9,1,1.5,2.1,2,3.3c0.5,1.4,0.7,2.9,0.7,4.3v14.5
		h-6.2v-13.7c0.1-1.4-0.4-2.8-1.4-3.9c-2-2-5.3-2-7.3,0c-1,1.1-1.5,2.4-1.4,3.9v13.7h-6.2V97.8h6.2v11.5c0.5-0.5,1-1,1.7-1.3
		c0.7-0.4,1.4-0.7,2.2-0.9C527.4,106.8,528.4,106.6,529.5,106.6"/>
</g>
</svg>
